<?xml version="1.0" standalone="no"?>
<!DOCTYPE svg PUBLIC "-//W3C//DTD SVG 20010904//EN"
 "http://www.w3.org/TR/2001/REC-SVG-20010904/DTD/svg10.dtd">
<svg version="1.0" xmlns="http://www.w3.org/2000/svg"
 width="979.000000pt" height="979.000000pt" viewBox="0 0 979.000000 979.000000"
 preserveAspectRatio="xMidYMid meet">
<metadata>
Created by potrace 1.11, written by Peter Selinger 2001-2013
</metadata>
<g transform="translate(0.000000,979.000000) scale(0.100000,-0.100000)"
fill="#000000" stroke="none">
<path d="M2135 7980 c-412 -31 -874 -139 -1051 -246 -123 -74 -298 -243 -456
-439 -158 -198 -304 -472 -393 -740 -116 -350 -170 -602 -200 -940 -4 -38 -8
-88 -10 -110 -21 -204 -28 -913 -12 -1170 12 -209 56 -540 87 -670 96 -390
297 -889 454 -1124 81 -122 301 -340 434 -430 166 -112 385 -207 637 -274 72
-19 110 -21 384 -24 231 -2 308 0 320 10 12 10 13 9 6 -3 -6 -12 -5 -13 6 -2
7 6 31 12 52 12 82 0 451 76 645 132 74 21 74 22 68 52 -4 17 -11 35 -16 40
-5 5 -59 -5 -138 -27 -369 -104 -832 -162 -1096 -138 -274 24 -583 132 -817
287 -100 65 -363 327 -423 422 -146 226 -291 584 -417 1026 -73 255 -113 684
-112 1206 0 611 46 1067 143 1415 12 44 23 87 25 95 13 60 97 297 142 400 119
274 259 483 478 709 213 220 299 265 690 361 300 73 572 100 995 99 330 -1
507 -12 556 -35 16 -8 57 -49 90 -90 41 -51 88 -94 152 -140 52 -36 94 -64 95
-62 1 1 13 15 26 30 l24 27 -24 21 c-13 11 -53 40 -89 64 -41 27 -84 68 -115
109 -69 90 -126 127 -212 138 -94 13 -794 19 -928 9z"/>
<path d="M3119 7576 c-70 -28 -104 -52 -157 -110 -93 -101 -190 -285 -260
-493 -37 -109 -70 -217 -77 -253 -2 -8 -10 -42 -18 -75 -24 -91 -83 -406 -101
-530 -39 -275 -58 -510 -77 -937 -21 -481 21 -1162 102 -1626 37 -216 98 -491
120 -549 6 -16 12 -35 14 -43 10 -47 83 -248 120 -326 89 -192 209 -339 312
-387 72 -32 162 -30 234 6 58 28 159 119 159 143 0 24 -83 18 -106 -7 -62 -69
-172 -97 -252 -64 -118 49 -253 263 -350 550 -87 260 -121 406 -191 823 -22
126 -55 466 -68 697 -16 272 -9 994 13 1234 18 203 47 453 65 551 48 273 90
478 108 530 5 14 17 52 26 85 133 460 303 716 476 715 145 -1 277 -163 411
-505 l23 -60 40 3 c22 2 41 5 42 6 6 5 -54 154 -103 255 -147 307 -329 440
-505 367z"/>
<path d="M3229 6436 c-78 -53 -148 -252 -188 -536 -39 -269 -46 -394 -46 -850
0 -479 6 -671 30 -906 13 -132 20 -179 42 -299 10 -57 54 -201 75 -244 56
-117 166 -178 246 -137 107 55 179 281 227 706 3 25 7 65 10 90 5 39 25 354
25 388 0 10 52 12 243 12 133 0 1514 -1 3068 0 l2827 0 -1 65 -1 65 -3138 0
-3138 0 0 -124 c0 -386 -66 -851 -145 -1023 -29 -63 -47 -66 -82 -15 -94 140
-143 517 -159 1227 -14 630 49 1227 151 1426 10 19 38 57 61 85 24 28 44 56
44 61 0 15 -46 33 -83 33 -18 0 -48 -11 -68 -24z"/>
<path d="M5550 5601 l0 -140 -47 27 c-99 55 -255 27 -328 -60 -52 -61 -67
-111 -63 -203 3 -73 7 -88 33 -126 44 -62 92 -96 163 -114 57 -15 67 -15 124
0 34 8 77 27 95 41 l33 25 0 -30 0 -31 75 0 75 0 0 375 0 375 -80 0 -80 0 0
-139z m-62 -221 c56 -34 77 -119 49 -200 -36 -104 -210 -107 -253 -5 -32 76
-4 178 57 208 46 23 107 21 147 -3z"/>
<path d="M6008 5697 c-110 -31 -173 -103 -173 -197 0 -96 64 -158 209 -205 47
-14 100 -37 118 -49 28 -18 33 -28 33 -60 0 -31 -6 -43 -28 -60 -40 -30 -178
-29 -256 2 -30 12 -56 21 -57 19 -5 -6 -35 -120 -32 -122 11 -10 110 -37 166
-45 73 -10 180 1 236 24 43 18 103 71 122 108 22 42 20 131 -3 171 -30 51 -95
93 -197 127 -122 40 -148 60 -144 109 2 28 9 39 33 51 39 19 156 18 213 -3
l44 -15 15 36 c27 65 23 85 -22 100 -57 20 -219 25 -277 9z"/>
<path d="M3556 5653 c-8 -65 -46 -577 -46 -625 l0 -38 74 0 73 0 6 78 c4 42 9
129 12 192 3 63 8 149 11 190 l6 75 29 -95 c16 -52 55 -169 88 -260 l59 -165
65 -3 65 -3 70 178 c38 98 85 220 103 272 l34 93 12 -243 c6 -134 12 -259 12
-276 l1 -33 81 0 81 0 -6 73 c-9 109 -27 377 -34 512 l-7 120 -105 0 -104 0
-64 -155 c-35 -85 -79 -198 -96 -250 l-33 -94 -12 49 c-11 44 -75 225 -141
398 l-21 57 -103 0 -103 0 -7 -47z"/>
<path d="M6553 5633 l-63 -14 0 -54 0 -54 -37 -3 -38 -3 -3 -57 -3 -58 39 0
40 0 4 -147 c4 -152 9 -175 51 -221 33 -36 110 -54 181 -42 32 5 61 11 63 14
3 2 2 29 -2 59 l-7 54 -43 -5 c-34 -3 -47 0 -64 17 -19 19 -21 32 -21 146 l0
125 70 0 71 0 -3 58 -3 57 -67 3 -68 3 0 69 c0 80 4 78 -97 53z"/>
<path d="M9595 5643 c-11 -2 -37 -9 -57 -14 l-38 -10 0 -54 0 -54 -42 -3 -43
-3 -3 -57 -3 -58 45 0 45 0 3 -159 c3 -143 5 -163 24 -188 32 -44 88 -67 161
-65 100 1 104 4 101 70 l-3 56 -45 -2 c-79 -5 -84 5 -88 157 l-4 131 72 0 71
0 -3 58 -3 57 -67 3 -68 3 0 69 c0 75 -1 76 -55 63z"/>
<path d="M4705 5511 c-89 -23 -185 -107 -205 -179 -14 -52 -12 -157 3 -195 50
-118 192 -179 366 -157 74 10 141 27 141 36 0 3 -5 25 -11 50 l-12 45 -51 -8
c-87 -14 -187 -9 -229 11 -31 15 -67 58 -67 80 0 3 89 7 198 8 l197 3 3 55 c6
98 -50 194 -135 232 -48 21 -153 31 -198 19z m134 -116 c23 -11 51 -57 51 -81
0 -2 -56 -4 -125 -4 -69 0 -125 3 -125 8 0 16 40 66 62 78 31 18 103 17 137
-1z"/>
<path d="M7072 5510 c-104 -22 -191 -97 -218 -187 -18 -59 -18 -97 1 -159 60
-201 377 -255 536 -92 65 67 86 176 54 269 -20 56 -85 122 -145 148 -56 24
-166 34 -228 21z m144 -119 c92 -42 107 -201 25 -275 -33 -30 -126 -33 -169
-6 -76 47 -86 195 -18 259 44 42 101 49 162 22z"/>
<path d="M7795 5501 c-23 -10 -53 -32 -67 -50 l-27 -31 -3 42 -3 43 -65 0
c-61 0 -65 -1 -64 -22 0 -13 1 -129 2 -258 l2 -235 75 0 75 0 0 133 c0 207 21
247 131 255 l60 4 -3 67 -3 66 -35 3 c-19 1 -53 -6 -75 -17z"/>
<path d="M8148 5506 c-63 -17 -121 -59 -158 -114 -36 -54 -43 -90 -38 -182 3
-57 9 -77 34 -112 60 -85 148 -123 284 -121 63 1 183 22 195 35 2 2 -1 25 -7
52 l-10 48 -37 -6 c-147 -26 -250 -11 -290 40 -41 52 -38 53 177 56 l197 3 -1
70 c0 51 -6 81 -22 111 -56 109 -187 157 -324 120z m161 -123 c16 -16 32 -38
36 -50 6 -23 6 -23 -119 -23 -69 0 -126 2 -126 5 0 4 7 19 15 35 20 39 60 59
117 60 39 0 53 -5 77 -27z"/>
<path d="M9040 5511 c-89 -18 -185 -100 -208 -179 -15 -50 -15 -133 -1 -183
37 -122 188 -191 368 -169 42 6 91 15 109 21 30 10 33 14 27 42 -14 72 -12 69
-68 60 -88 -14 -188 -9 -230 11 -31 16 -67 58 -67 81 0 3 90 5 200 5 l200 0 0
63 c0 175 -146 285 -330 248z m129 -115 c25 -13 51 -52 51 -76 0 -6 -52 -10
-125 -10 -69 0 -125 3 -125 6 0 16 35 63 59 77 32 20 103 22 140 3z"/>
<path d="M8603 5141 c-92 -58 -16 -198 86 -159 45 17 61 38 61 83 0 76 -81
118 -147 76z"/>
<path d="M4124 4474 c3 -9 6 -39 6 -67 l0 -52 2736 0 2736 0 24 -28 c31 -37
30 -51 -11 -154 -44 -110 -57 -128 -105 -153 -39 -20 -56 -20 -1328 -20 -831
0 -1308 -4 -1343 -10 -96 -18 -165 -85 -190 -183 -11 -46 -10 -53 42 -199 61
-169 92 -213 190 -265 l54 -28 1128 -5 1129 -5 19 -24 c27 -33 25 -53 -23
-176 -49 -125 -95 -182 -164 -203 -32 -9 -282 -12 -1053 -12 l-1013 0 7 -31
c4 -18 14 -47 21 -65 l14 -34 1004 0 c1105 0 1051 -3 1151 63 53 36 107 107
137 182 65 158 70 178 66 244 -4 76 -32 123 -97 163 l-36 23 -1125 5 -1125 5
-45 25 c-57 32 -82 70 -119 183 -37 111 -38 137 -7 174 l24 28 1334 5 1333 5
55 28 c100 50 135 93 190 233 46 118 51 180 19 245 -24 47 -79 95 -126 108
-26 8 -896 11 -2777 11 -2493 0 -2738 -1 -2732 -16z"/>
<path d="M7399 2594 c-58 -17 -131 -81 -158 -137 -25 -52 -28 -148 -6 -201 35
-84 126 -148 228 -162 97 -14 220 50 267 139 l25 47 350 0 350 0 25 -47 c47
-89 170 -153 267 -139 106 14 210 92 233 175 17 60 12 140 -11 188 -42 87
-150 153 -250 153 -95 0 -206 -67 -247 -150 l-20 -41 -348 0 -348 0 -19 41
c-55 116 -204 176 -338 134z m144 -128 c46 -20 78 -58 83 -103 6 -47 -11 -80
-56 -111 -29 -20 -44 -23 -93 -20 -48 4 -63 9 -88 35 -62 62 -45 153 36 193
47 24 74 25 118 6z m1244 -5 c79 -36 98 -125 40 -188 -29 -31 -41 -37 -89 -41
-39 -3 -64 1 -87 12 -37 20 -71 70 -71 107 0 58 78 129 140 129 14 0 44 -9 67
-19z"/>
</g>
</svg>
